# xmcd
#
# Track frame offsets: 
#        150
#        13368
#        24952
#        34599
#        45023
#        56536
#        68429
#        81377
#        94349
#        105428
#        118438
#        130099
#        140913
#        151901
#        165070
#        176717
#        191386
#        202160
#        214509
#        225062
#
# Disc length: 3252 seconds
#
# Revision: 2
# Processed by: cddbd v1.5.2PL0 Copyright (c) Steve Scherf et al.
# Submitted via: ExactAudioCopy v0.99pb4
#
DISCID=fd0cb214
DTITLE=Ben E. King - Le Piu Belle Canzoni Di Ben E. King 
DYEAR=2006
DGENRE=Soul
TTITLE0=Stand By Me
TTITLE1=Save The Last Dance For Me
TTITLE2=I Count The Tears
TTITLE3=Young Boy Blues
TTITLE4=I Could Have Danced All Night
TTITLE5=Dream Lover
TTITLE6=Moon River
TTITLE7=Spanish Harlem
TTITLE8=This Magic Momnet
TTITLE9=Don´t Play That Song (You Lied)
TTITLE10=Walking In The Footsteps Of A Fool
TTITLE11=Dance With Me (Con The Drifters)
TTITLE12=Here Comes The Night
TTITLE13=Amor
TTITLE14=What Now My Love?
TTITLE15=It's All Over
TTITLE16=River Of Tears
TTITLE17=I Swear By Stars Above
TTITLE18=What Is Soul?
TTITLE19=Supernatural Thing (Part1)
EXTD=(c) 2005 Warner Music\n
EXTT0=
EXTT1=
EXTT2=
EXTT3=
EXTT4=
EXTT5=
EXTT6=
EXTT7=
EXTT8=
EXTT9=
EXTT10=
EXTT11=
EXTT12=
EXTT13=
EXTT14=
EXTT15=
EXTT16=
EXTT17=
EXTT18=
EXTT19=
PLAYORDER=
